<?xml version="1.0" encoding="utf-8"?>
<svg xmlns="http://www.w3.org/2000/svg" height="24" width="24" viewBox="0 0 24 24">
  <g>
    <path id="path1" transform="rotate(0,12,12) translate(0,1.50003611928662) scale(0.749976576106198,0.749976576106198)  " fill="#FFFFFF" d="M30.001001,7.3876326L17.001001,11.720663 17.001001,25.612759 30.001001,21.279728z M2.0010004,7.3873956L2.0010004,21.279652 15.001001,25.612732 15.001001,11.720476z M16.0005,2.0541706L4.1629426,6.0000131 16.001317,9.9462113 27.838945,6.0003082z M15.980675,0L16.003951,0.00043869019 16.019584,0 16.033515,0.00099563599 16.060222,0.001499176 16.110753,0.0065169334 16.118453,0.0070672035 16.121345,0.0075688362 16.138822,0.0093045235C16.190831,0.016571522,16.241983,0.027927399,16.291822,0.043141842L16.326081,0.055078983 31.289853,5.0429898 31.321838,5.0525481C31.414649,5.0840657,31.503438,5.1295543,31.585,5.1886173L31.618518,5.2158561 31.660915,5.2496119 31.665353,5.2539178 31.678098,5.2642761 31.709611,5.2968594 31.730588,5.3172124 31.739837,5.3281115 31.760532,5.3495091 31.782392,5.3782628 31.793035,5.3908059 31.804891,5.4078565 31.831762,5.4432029 31.844445,5.4647442 31.84793,5.4697574 31.859155,5.489728 31.89125,5.5442445C31.909063,5.5790262,31.924829,5.6148467,31.938457,5.651521L31.952741,5.6982081 31.964112,5.7324194 31.966785,5.7441134 31.972844,5.7639179 31.978631,5.7959529 31.985603,5.8264613 31.989173,5.8543094 31.993871,5.8803232 31.995063,5.9002568 31.997939,5.9226906 31.999412,5.9730361 32.001001,5.999623 32.001001,21.999733C32.001001,22.430737,31.726001,22.812741,31.317001,22.94874L16.317874,27.948483 16.306127,27.952776C16.207502,27.984528 16.104501,28.000779 16.001001,28.000779 15.921498,28.000779 15.841438,27.991215 15.762925,27.971669L15.707506,27.955386 15.695876,27.952151 15.693296,27.95121 15.685006,27.948775 0.68500653,22.948681C0.27599445,22.812678,0.0010005516,22.430674,0.0010003992,22.000666L0.0010003992,6.0318482 0.00020119513,6.0204719C-0.00045988779,5.9876897,0.00051177241,5.9550605,0.0030627843,5.9226906L0.0078642081,5.8852343 0.0081298143,5.880781 0.0091846111,5.8749353 0.015398471,5.8264613 0.02743374,5.7737935 0.02915756,5.7642398 0.030973412,5.7583034 0.036888285,5.7324194 0.062005991,5.6568555 0.06354527,5.6518233 0.064089356,5.6505873 0.067210352,5.6411986C0.078754334,5.6113321,0.091716966,5.5820417,0.10604471,5.553433L0.1098476,5.546666 0.11075315,5.5446098 0.11613681,5.5354757 0.15307043,5.4697574 0.16488683,5.4527628 0.17024188,5.4436774 0.18135682,5.4290757 0.20796659,5.3908059 0.23248394,5.3619116 0.24147212,5.3501042 0.24980751,5.3414956 0.27041229,5.3172124 0.31841126,5.2706421 0.32390508,5.2649685 0.32608095,5.2632013 0.34008705,5.2496119C0.38887504,5.2066831,0.44226849,5.1681722,0.49983963,5.1349252L0.511893,5.12875 0.51780984,5.1249719 0.54157325,5.1135451 0.5892761,5.0891074 0.60595974,5.082585 0.62442055,5.0737084 0.65804151,5.0622248 0.68465844,5.0518194 15.684356,0.051933289 15.686238,0.051379681 15.731394,0.036394596 15.757051,0.030553341 15.758273,0.030193806 15.763847,0.029006481 15.825429,0.014986038 15.869636,0.0093660355 15.906701,0.0043625832 15.910975,0.0041108131 15.921701,0.0027470589 15.945348,0.0020833015z" />
  </g>
</svg>

