<?xml version="1.0" encoding="utf-8"?>
<svg xmlns="http://www.w3.org/2000/svg" height="24" width="24" viewBox="0 0 24 24">
  <g>
    <path id="path1" transform="rotate(0,12,12) translate(0,1.85662937164307) scale(0.75,0.75)  " fill="#FFFFFF" d="M16.978001,2.0346899L16.978001,5.5019855 14.978001,5.5019855 14.978001,2.037487 14.924365,2.0408964C11.965629,2.2667236,9.2612376,3.4161825,7.0996776,5.2007885L6.8864784,5.3811226 9.3490291,7.8429852 7.9350271,9.2569809 5.4660749,6.7887177 5.4179745,6.8429117C3.5830173,8.9605827,2.3716679,11.632624,2.0724125,14.57055L2.0436001,14.894018 5.6090193,14.894018 5.6090193,16.894018 2.0290794,16.894018 2.031045,16.929265C2.2305517,19.910441,3.386219,22.750741,5.3409996,25.048989L15.000021,25.048989 15.000021,14.262026 17.000021,14.262026 17.000021,25.048989 26.66,25.048989C28.615687,22.750741,29.769796,19.910441,29.969004,16.929265L29.972249,16.870968 26.36901,16.870968 26.36901,14.870967 29.954347,14.870967 29.927588,14.57055C29.628332,11.632624,28.416983,8.9605827,26.582026,6.8429117L26.50885,6.7604661 24.02801,9.2419682 22.613998,7.8279662 25.084623,5.3566799 24.900322,5.2007885C22.738762,3.4161825,20.03437,2.2667236,17.075634,2.0408964z M16,0C24.822,0 32,7.1779971 32,15.999993 32,19.958992 30.528,23.76599 27.855,26.719989L27.557,27.048988 4.4449997,27.048988 4.1469994,26.719989C1.4729996,23.76599 0,19.957992 0,15.999993 0,7.1779971 7.1779995,0 16,0z" />
  </g>
</svg>

