<?xml version="1.0" encoding="utf-8"?>
<svg xmlns="http://www.w3.org/2000/svg" height="24" width="24" viewBox="0 0 24 24">
  <g>
    <path id="path1" transform="rotate(0,12,12) translate(0.191252878456277,0) scale(0.749999731779194,0.749999731779194)  " fill="#FFFFFF" d="M18.755025,22.173997C14.933005,22.173997,11.823998,25.282994,11.823999,29.105001L11.823999,30.030962 29.521011,30.030962 29.521011,29.105001C29.521011,25.282994,26.412004,22.173997,22.590045,22.173997z M20.642997,10.343053C18.194997,10.343053 16.203998,12.33505 16.203998,14.782047 16.203998,17.230044 18.194997,19.222041 20.642997,19.222041 23.090997,19.222041 25.081996,17.230044 25.081996,14.782047 25.081996,12.33505 23.090997,10.343053 20.642997,10.343053z M20.642997,8.3740549C24.175996,8.3740549 27.049995,11.249051 27.049995,14.782047 27.049995,17.101231 25.812267,19.136609 23.962821,20.261886L23.895027,20.300924 23.943722,20.307758C28.211416,20.961736,31.490004,24.658065,31.490004,29.105001L31.490004,32.00001 9.8550054,32.00001 9.8550054,29.105001C9.855005,24.658065,13.134445,20.961736,17.401572,20.307758L17.40202,20.307695 17.322455,20.261886C15.472726,19.136609 14.234998,17.101231 14.234998,14.782047 14.234998,11.249051 17.108997,8.3740549 20.642997,8.3740549z M9.8190052,1.9690018C7.8430076,1.9690018 6.2370095,3.5750046 6.237009,5.5510054 6.2370095,7.5260077 7.8430076,9.133009 9.8190052,9.133009 11.794003,9.133009 13.400001,7.5260077 13.400001,5.5510054 13.400001,3.5750046 11.794003,1.9690018 9.8190052,1.9690018z M9.8190052,0C12.879002,0 15.368999,2.4900036 15.368999,5.5510054 15.368999,7.3684759 14.491178,8.9846468 13.137429,9.9978313L12.952956,10.129128 13.199765,10.185238C13.672184,10.301455,14.138395,10.461709,14.579021,10.682021L13.698019,12.443021C12.646018,11.916021,11.197016,11.856021,10.198015,11.856021L9.1900133,11.856021C5.2760077,11.856021,1.9690032,15.064022,1.9690032,18.864023L1.9690032,20.715024 11.813017,20.715024 11.813017,22.684024 0,22.684024 0,18.864023C0,14.833538,2.8864989,11.322196,6.7075498,10.234238L6.8037729,10.208117 6.7174718,10.152739C5.2406669,9.154212 4.268012,7.4641323 4.268012,5.5510054 4.268012,2.4900036 6.758009,0 9.8190052,0z" />
  </g>
</svg>

