<?xml version="1.0" encoding="utf-8"?>
<svg xmlns="http://www.w3.org/2000/svg" height="24" width="24" viewBox="0 0 24 24">
  <g>
    <path id="path1" transform="rotate(0,12,12) translate(0,3.00168754190693) scale(0.749953779446605,0.749953779446605)  " fill="#FFFFFF" d="M26.031004,13.528137L19.372009,16.478038 17.000022,13.787002 17.000022,21.413428 26.031004,17.680959z M5.9680057,13.526826L5.9680057,17.357962 15.000022,21.370505 15.000022,13.789745 12.630009,16.478044z M5.1440036,7.8660445L3.2420027,10.132044 12.098009,14.056044 14.19701,11.676044z M26.857988,7.8660207L17.805014,11.676029 19.904008,14.055033 28.759983,10.132025z M15.979056,2.1460066L5.6931636,5.9288149 15.999804,10.265273 25.710386,6.1795807z M16.022057,0L31.732071,6.5100222 30.96607,8.3580279 29.304001,7.6691113 32.001974,10.883027 28.031004,12.642147 28.031004,19.017991 15.984979,23.996979 3.9680044,18.658007 3.9680044,12.640841 0,10.883044 3.4746478,6.7447109 1.6030419,7.4330254 0.91304111,5.5560188z" />
  </g>
</svg>

