<svg xmlns="http://www.w3.org/2000/svg" width="20" height="17.328" viewBox="0 0 20 17.328">
    <path id="prefix__Path_353" d="M-133.26 160.638l-8.106-13.535a1.914 1.914 0 0 0-2.629-.644 1.912 1.912 0 0 0-.644.644l-8.106 13.532a1.915 1.915 0 0 0 .7 2.616 1.923 1.923 0 0 0 .942.258h16.203a1.914 1.914 0 0 0 1.9-1.935 1.913 1.913 0 0 0-.26-.936zm-8.979-.2a1.007 1.007 0 0 1-.346.231 1.059 1.059 0 0 1-.418.086 1 1 0 0 1-.411-.086.97.97 0 0 1-.353-.231 1.078 1.078 0 0 1-.317-.763 1.093 1.093 0 0 1 .022-.216 1.092 1.092 0 0 1 .065-.2.856.856 0 0 1 .094-.18 1.086 1.086 0 0 1 .137-.166 1.512 1.512 0 0 1 .166-.136 1.454 1.454 0 0 1 .187-.1.929.929 0 0 1 .2-.058 1.079 1.079 0 0 1 .972.295 1.088 1.088 0 0 1 .137.166 1.453 1.453 0 0 1 .1.18c.022.065.043.137.058.2a1.1 1.1 0 0 1 .022.216 1.062 1.062 0 0 1-.315.767zm.318-4.592a1.08 1.08 0 0 1-1.079 1.085 1.08 1.08 0 0 1-1.081-1.081v-3.828a1.08 1.08 0 0 1 1.081-1.08 1.081 1.081 0 0 1 1.081 1.081z" data-name="Path 353" transform="translate(153.003 -146.181)" style="fill:#fff"/>
</svg>
